TITLE ""
FILE "DISC1Track05.mp3" MP3
  TRACK 01 AUDIO
    TITLE "DISC1Track05_01"
    INDEX 01 00:00:00
  TRACK 02 AUDIO
    TITLE "DISC1Track05_02"
    INDEX 01 00:02:07
  TRACK 03 AUDIO
    TITLE "DISC1Track05_03"
    INDEX 01 00:02:35
  TRACK 04 AUDIO
    TITLE "DISC1Track05_04"
    INDEX 01 00:04:22
  TRACK 05 AUDIO
    TITLE "DISC1Track05_05"
    INDEX 01 00:06:09
  TRACK 06 AUDIO
    TITLE "DISC1Track05_06"
    INDEX 01 00:07:51
  TRACK 07 AUDIO
    TITLE "DISC1Track05_07"
    INDEX 01 00:08:06
  TRACK 08 AUDIO
    TITLE "DISC1Track05_08"
    INDEX 01 00:10:03
  TRACK 09 AUDIO
    TITLE "DISC1Track05_09"
    INDEX 01 00:12:25
  TRACK 10 AUDIO
    TITLE "DISC1Track05_10"
    INDEX 01 00:14:32
  TRACK 11 AUDIO
    TITLE "DISC1Track05_11"
    INDEX 01 00:14:59
  TRACK 12 AUDIO
    TITLE "DISC1Track05_12"
    INDEX 01 00:16:52
  TRACK 13 AUDIO
    TITLE "DISC1Track05_13"
    INDEX 01 00:18:47
  TRACK 14 AUDIO
    TITLE "DISC1Track05_14"
    INDEX 01 00:20:17
  TRACK 15 AUDIO
    TITLE "DISC1Track05_15"
    INDEX 01 00:20:48
  TRACK 16 AUDIO
    TITLE "DISC1Track05_16"
    INDEX 01 00:22:53
  TRACK 17 AUDIO
    TITLE "DISC1Track05_17"
    INDEX 01 00:25:12
  TRACK 18 AUDIO
    TITLE "DISC1Track05_18"
    INDEX 01 00:27:33
  TRACK 19 AUDIO
    TITLE "DISC1Track05_19"
    INDEX 01 00:27:64
  TRACK 20 AUDIO
    TITLE "DISC1Track05_20"
    INDEX 01 00:29:61
  TRACK 21 AUDIO
    TITLE "DISC1Track05_21"
    INDEX 01 00:31:54
  TRACK 22 AUDIO
    TITLE "DISC1Track05_22"
    INDEX 01 00:33:25
  TRACK 23 AUDIO
    TITLE "DISC1Track05_23"
    INDEX 01 00:33:55
  TRACK 24 AUDIO
    TITLE "DISC1Track05_24"
    INDEX 01 00:35:54
  TRACK 25 AUDIO
    TITLE "DISC1Track05_25"
    INDEX 01 00:38:03
  TRACK 26 AUDIO
    TITLE "DISC1Track05_26"
    INDEX 01 00:40:02
  TRACK 27 AUDIO
    TITLE "DISC1Track05_27"
    INDEX 01 00:40:35
  TRACK 28 AUDIO
    TITLE "DISC1Track05_28"
    INDEX 01 00:42:69
  TRACK 29 AUDIO
    TITLE "DISC1Track05_29"
    INDEX 01 00:45:15
  TRACK 30 AUDIO
    TITLE "DISC1Track05_30"
    INDEX 01 00:47:06
  TRACK 31 AUDIO
    TITLE "DISC1Track05_31"
    INDEX 01 00:47:39
  TRACK 32 AUDIO
    TITLE "DISC1Track05_32"
    INDEX 01 00:49:44
  TRACK 33 AUDIO
    TITLE "DISC1Track05_33"
    INDEX 01 00:52:01
  TRACK 34 AUDIO
    TITLE "DISC1Track05_34"
    INDEX 01 00:54:12
  TRACK 35 AUDIO
    TITLE "DISC1Track05_35"
    INDEX 01 00:54:43
  TRACK 36 AUDIO
    TITLE "DISC1Track05_36"
    INDEX 01 00:56:52
  TRACK 37 AUDIO
    TITLE "DISC1Track05_37"
    INDEX 01 00:58:67
  TRACK 38 AUDIO
    TITLE "DISC1Track05_38"
    INDEX 01 01:00:61
  TRACK 39 AUDIO
    TITLE "DISC1Track05_39"
    INDEX 01 01:01:10
  TRACK 40 AUDIO
    TITLE "DISC1Track05_40"
    INDEX 01 01:02:45
  TRACK 41 AUDIO
    TITLE "DISC1Track05_41"
    INDEX 01 01:04:44
  TRACK 42 AUDIO
    TITLE "DISC1Track05_42"
    INDEX 01 01:06:35
  TRACK 43 AUDIO
    TITLE "DISC1Track05_43"
    INDEX 01 01:06:66
  TRACK 44 AUDIO
    TITLE "DISC1Track05_44"
    INDEX 01 01:09:11
  TRACK 45 AUDIO
    TITLE "DISC1Track05_45"
    INDEX 01 01:11:24
  TRACK 46 AUDIO
    TITLE "DISC1Track05_46"
    INDEX 01 01:13:17
  TRACK 47 AUDIO
    TITLE "DISC1Track05_47"
    INDEX 01 01:13:46
  TRACK 48 AUDIO
    TITLE "DISC1Track05_48"
    INDEX 01 01:15:34
  TRACK 49 AUDIO
    TITLE "DISC1Track05_49"
    INDEX 01 01:17:38
  TRACK 50 AUDIO
    TITLE "DISC1Track05_50"
    INDEX 01 01:19:20
  TRACK 51 AUDIO
    TITLE "DISC1Track05_51"
    INDEX 01 01:19:49
  TRACK 52 AUDIO
    TITLE "DISC1Track05_52"
    INDEX 01 01:22:14
  TRACK 53 AUDIO
    TITLE "DISC1Track05_53"
    INDEX 01 01:24:31
  TRACK 54 AUDIO
    TITLE "DISC1Track05_54"
    INDEX 01 01:26:30
  TRACK 55 AUDIO
    TITLE "DISC1Track05_55"
    INDEX 01 01:26:57
  TRACK 56 AUDIO
    TITLE "DISC1Track05_56"
    INDEX 01 01:29:20
  TRACK 57 AUDIO
    TITLE "DISC1Track05_57"
    INDEX 01 01:31:64
  TRACK 58 AUDIO
    TITLE "DISC1Track05_58"
    INDEX 01 01:34:23
  TRACK 59 AUDIO
    TITLE "DISC1Track05_59"
    INDEX 01 01:34:54
  TRACK 60 AUDIO
    TITLE "DISC1Track05_60"
    INDEX 01 01:37:12
  TRACK 61 AUDIO
    TITLE "DISC1Track05_61"
    INDEX 01 01:39:24
  TRACK 62 AUDIO
    TITLE "DISC1Track05_62"
    INDEX 01 01:41:19
  TRACK 63 AUDIO
    TITLE "DISC1Track05_63"
    INDEX 01 01:41:47
  TRACK 64 AUDIO
    TITLE "DISC1Track05_64"
    INDEX 01 01:43:73
  TRACK 65 AUDIO
    TITLE "DISC1Track05_65"
    INDEX 01 01:46:66
  TRACK 66 AUDIO
    TITLE "DISC1Track05_66"
    INDEX 01 01:49:44
  TRACK 67 AUDIO
    TITLE "DISC1Track05_67"
    INDEX 01 01:49:70
  TRACK 68 AUDIO
    TITLE "DISC1Track05_68"
    INDEX 01 01:53:05
  TRACK 69 AUDIO
    TITLE "DISC1Track05_69"
    INDEX 01 01:55:59
  TRACK 70 AUDIO
    TITLE "DISC1Track05_70"
    INDEX 01 01:58:18
  TRACK 71 AUDIO
    TITLE "DISC1Track05_71"
    INDEX 01 01:58:43
  TRACK 72 AUDIO
    TITLE "DISC1Track05_72"
    INDEX 01 02:00:44
  TRACK 73 AUDIO
    TITLE "DISC1Track05_73"
    INDEX 01 02:02:70
  TRACK 74 AUDIO
    TITLE "DISC1Track05_74"
    INDEX 01 02:05:00
  TRACK 75 AUDIO
    TITLE "DISC1Track05_75"
    INDEX 01 02:05:24
  TRACK 76 AUDIO
    TITLE "DISC1Track05_76"
    INDEX 01 02:08:26
  TRACK 77 AUDIO
    TITLE "DISC1Track05_77"
    INDEX 01 02:10:72
  TRACK 78 AUDIO
    TITLE "DISC1Track05_78"
    INDEX 01 02:13:21
  TRACK 79 AUDIO
    TITLE "DISC1Track05_79"
    INDEX 01 02:13:43
  TRACK 80 AUDIO
    TITLE "DISC1Track05_80"
    INDEX 01 02:16:04
  TRACK 81 AUDIO
    TITLE "DISC1Track05_81"
    INDEX 01 02:18:60
  TRACK 82 AUDIO
    TITLE "DISC1Track05_82"
    INDEX 01 02:21:31
